<?xml version="1.0" encoding="utf-8"?>
<!-- Generator: Adobe Illustrator 27.4.1, SVG Export Plug-In . SVG Version: 6.00 Build 0)  -->
<svg version="1.1" id="Layer_1" xmlns="http://www.w3.org/2000/svg" xmlns:xlink="http://www.w3.org/1999/xlink" x="0px" y="0px"
	 viewBox="0 0 1080 1080" style="enable-background:new 0 0 1080 1080;" xml:space="preserve">
<style type="text/css">
	.st0{fill:#09AA00;}
	.st1{fill:#D69B25;}
	.st2{fill:#D82B2B;}
	.st3{fill:#FFFFFF;}
	.st4{fill:#FF5555;}
	.st5{fill:none;}
	.st6{opacity:0.35;enable-background:new    ;}
	.st7{fill:#606060;}
</style>
<g>
	<g>
		<rect x="811.15" y="208.38" class="st0" width="69.8" height="123.52"/>
		<path d="M890.95,341.9h-89.8V198.38h89.8V341.9z M821.16,321.9h49.8V218.38h-49.8V321.9z"/>
	</g>
	<g>
		<rect x="811.15" y="373.55" class="st1" width="69.8" height="123.52"/>
		<path d="M890.95,507.07h-89.8V363.55h89.8V507.07z M821.16,487.07h49.8V383.55h-49.8V487.07z"/>
	</g>
	<g>
		<rect x="811.15" y="538.73" class="st2" width="69.8" height="123.52"/>
		<path d="M890.95,672.25h-89.8V528.73h89.8V672.25z M821.16,652.25h49.8V548.73h-49.8V652.25z"/>
	</g>
	<g>
		<g>
			<g>
				<path class="st3" d="M220.89,980.28c-12.24,0-22.2-9.96-22.2-22.2V183.64H734.7c51.13,0,92.72,41.6,92.72,92.72v576.86
					c0,70.06-56.99,127.05-127.05,127.05H220.89V980.28z"/>
			</g>
			<g>
				<path d="M734.68,193.28c45.88,0,83.08,37.2,83.08,83.08v576.86c0,64.84-52.57,117.41-117.41,117.41H220.89
					c-6.94,0-12.56-5.62-12.56-12.56v-764.8L734.68,193.28 M734.68,174H208.33h-19.28v19.28v764.8c0,17.56,14.28,31.84,31.84,31.84
					h479.48c36.51,0,70.84-14.22,96.66-40.04c25.82-25.82,40.04-60.14,40.04-96.66V276.36C837.05,219.92,791.14,174,734.68,174
					L734.68,174z"/>
			</g>
		</g>
		<g>
			<g>
				<path class="st2" d="M198.69,880.83v-759.3c0-12.02,9.78-21.81,21.81-21.81h514.2c51.13,0,92.72,41.6,92.72,92.72v561.33
					c0,70.06-56.99,127.05-127.05,127.05H198.69V880.83z"/>
			</g>
			<g>
				<path d="M734.68,109.36c45.88,0,83.08,37.2,83.08,83.08v561.33c0,64.84-52.57,117.41-117.41,117.41H208.33V121.53
					c0-6.72,5.45-12.17,12.17-12.17H734.68L734.68,109.36z M734.68,90.08H220.5c-17.34,0-31.45,14.11-31.45,31.45v749.65v19.28
					h19.28h492.03c36.51,0,70.84-14.22,96.66-40.04c25.82-25.82,40.04-60.14,40.04-96.66V192.44
					C837.05,136,791.14,90.08,734.68,90.08L734.68,90.08z"/>
			</g>
			<g>
				<path class="st4" d="M817.77,192.44v15.94c0-33.42-37.19-60.5-83.08-60.5H208.33v-26.86c0-6.33,5.05-11.49,11.36-11.65H734.7
					c0.71,0,1.44,0.01,2.14,0.02C781.73,110.53,817.77,147.27,817.77,192.44z"/>
			</g>
		</g>
		<g>
			<g>
				<line class="st5" x1="208.33" y1="934.89" x2="387.17" y2="934.89"/>
			</g>
			<g>
				<rect x="208.33" y="925.24" width="178.84" height="19.28"/>
			</g>
		</g>
		<g class="st6">
			<path class="st7" d="M808.05,900.02c-18.06,41.56-59.48,70.62-107.69,70.62H208.33v-38.51h526.36
				C766.47,932.13,794.09,919.12,808.05,900.02z"/>
		</g>
	</g>
	<g>
		<g>
			<g>
				<g>
					<path class="st3" d="M513.15,710.4c113.67,0,205.81-92.14,205.81-205.81H307.34C307.34,618.26,399.49,710.4,513.15,710.4z"/>
				</g>
				<g>
					<path d="M513.15,720.33c-29.12,0-57.37-5.71-83.98-16.96c-25.69-10.87-48.76-26.42-68.57-46.23s-35.36-42.88-46.23-68.57
						c-11.25-26.6-16.96-54.86-16.96-83.98c0-5.48,4.44-9.93,9.93-9.93h411.62c2.63,0,5.16,1.05,7.02,2.91
						c1.86,1.86,2.91,4.39,2.91,7.02c0,29.12-5.71,57.37-16.96,83.98c-10.87,25.69-26.42,48.76-46.23,68.57
						s-42.88,35.36-68.57,46.23C570.52,714.62,542.27,720.33,513.15,720.33z M317.52,514.52c5.19,103.42,90.95,185.96,195.63,185.96
						s190.45-82.54,195.63-185.96H317.52z"/>
				</g>
			</g>
			<g>
				<g>
					<path class="st2" d="M513.15,298.78c113.67,0,205.81,92.14,205.81,205.81H307.34C307.34,390.92,399.49,298.78,513.15,298.78z"
						/>
				</g>
				<g>
					<path d="M718.96,514.52H307.34c-5.48,0-9.93-4.44-9.93-9.93c0-29.12,5.71-57.37,16.96-83.98
						c10.87-25.69,26.42-48.76,46.23-68.57s42.88-35.36,68.57-46.23c26.6-11.25,54.86-16.96,83.98-16.96
						c29.12,0,57.37,5.71,83.98,16.96c25.69,10.87,48.76,26.42,68.57,46.23s35.36,42.88,46.23,68.57
						c11.25,26.6,16.96,54.86,16.96,83.98c0,2.63-1.05,5.16-2.91,7.02C724.11,513.47,721.59,514.52,718.96,514.52z M317.52,494.66
						h391.27c-5.19-103.42-90.95-185.96-195.63-185.96S322.7,391.25,317.52,494.66z"/>
				</g>
			</g>
		</g>
		<g>
			<g>
				<polygon class="st0" points="292.24,658.75 487.34,394.69 527.82,492.05 623.29,371.31 590.38,345.19 735.2,287.96 
					712.34,441.99 677.66,414.47 509.04,627.71 470.37,534.7 348.14,699.91 				"/>
			</g>
			<g>
				<path d="M724.54,301.38l-18.5,124.69l-29.78-23.63L511.36,610.97l-38.88-93.51L346.33,687.95l-42.11-31.01l181.02-245
					l40.26,96.84L635.3,369.92l-28-22.22L724.54,301.38 M745.84,274.54l-27.59,10.9l-117.23,46.32l-27.59,10.9l23.24,18.44
					l14.6,11.59L530.13,475.3l-29.08-69.94l-11.61-27.93l-17.98,24.33l-181.02,245l-10.19,13.8l13.81,10.17l42.11,31.01l13.76,10.13
					l10.16-13.74l108.17-146.19l27.27,65.6l11.18,26.9l18.07-22.85L679.06,426.5l16.34,12.97l23.24,18.44l4.35-29.34l18.5-124.69
					L745.84,274.54L745.84,274.54z"/>
			</g>
		</g>
	</g>
</g>
</svg>
